<mxfile host="app.diagrams.net" modified="2021-09-08T06:58:51.420Z" agent="5.0 (Windows NT 10.0; Win64; x64) AppleWebKit/537.36 (KHTML, like Gecko) Chrome/93.0.4577.63 Safari/537.36" etag="yI15wdPa45ZVlo2iNgzM" version="15.0.6" type="github" pages="2">
  <diagram id="5i1gYkIpQbCVIJ6hsDEV" name="AppAggGrp3">
    <mxGraphModel dx="1038" dy="624" grid="1" gridSize="10" guides="1" tooltips="1" connect="1" arrows="1" fold="1" page="1" pageScale="1" pageWidth="827" pageHeight="1169" math="0" shadow="0">
      <root>
        <mxCell id="0" />
        <mxCell id="1" parent="0" />
      </root>
    </mxGraphModel>
  </diagram>
  <diagram id="1Xv3h6oxO8wlBoKEJvtY" name="ArrayBuffer">
    <mxGraphModel dx="1038" dy="624" grid="1" gridSize="10" guides="1" tooltips="1" connect="1" arrows="1" fold="1" page="1" pageScale="1" pageWidth="827" pageHeight="1169" math="0" shadow="0">
      <root>
        <mxCell id="KgrgidPnCqcLzU5WuNqF-0" />
        <mxCell id="KgrgidPnCqcLzU5WuNqF-1" parent="KgrgidPnCqcLzU5WuNqF-0" />
      </root>
    </mxGraphModel>
  </diagram>
</mxfile>
